<svg xmlns="http://www.w3.org/2000/svg" viewBox="0 0 370.77 140.79"><defs><style>.cls-1{fill:#003100;}.cls-2,.cls-3,.cls-4{fill:#85bd34;}.cls-3{font-size:60px;}.cls-3,.cls-4{font-family:Tinos-Bold, Tinos;font-weight:700;}.cls-4{font-size:28px;}.cls-5{letter-spacing:-0.07em;}.cls-6{letter-spacing:-0.04em;}</style></defs><g id="Layer_2" data-name="Layer 2"><g id="Logo"><rect id="Logo_bg" data-name="Logo  bg" width="370.77" height="140.79" rx="20"/><path class="cls-1" d="M326.44,75.63l9.43,6.75a45.86,45.86,0,0,1-27.65,15.86c-3.6.56-18.13,2.62-31.28-6.75C270.51,86.9,264.23,78.72,265,78c1.08-1,3.11,3.85,10.08,8.46,2.57,1.71,15.27,9.09,30.53,4.72A38,38,0,0,0,326.44,75.63Z"/><g id="squares"><rect class="cls-2" x="292.65" y="64.29" width="4.5" height="4.18"/><rect class="cls-2" x="298.17" y="64.29" width="4.5" height="4.18"/><rect class="cls-2" x="298.17" y="69.86" width="4.5" height="4.18"/><rect class="cls-2" x="298.17" y="69.86" width="4.5" height="4.18"/><rect class="cls-2" x="292.65" y="69.86" width="4.5" height="4.18"/><rect class="cls-2" x="292.65" y="69.86" width="4.5" height="4.18"/></g><g id="Texts_and_Leaf" data-name="Texts and Leaf"><path class="cls-1" d="M263,39.31a1.69,1.69,0,0,1-1.12-.62,2.29,2.29,0,0,1-.29-2.21c1.39-4.62,5.63-8.76,10.15-12.9,7.63-7,17.23-11.66,27.24-12.45,17.51-1.39,34.13,7.53,40.5,21.62,13.82,30.56-2.25,48.56-2.25,48.56s-7.31-3-10.07-6.43c.46-.86,10.59-20.41.21-37.5C321,27,310.94,20.89,301.5,19.65a40.22,40.22,0,0,0-14.87.88,52,52,0,0,0-8.81,3.35,36.6,36.6,0,0,0-8.95,5.25c1.09-.78,15.67-10.86,32.47-4.34,11,4.28,18.6,13.83,20.57,23.63,2.73,13.6-5.63,25.23-5.63,25.23s-5.29-2.49-7.23-5.15a27.59,27.59,0,0,0,3.22-19.92,27.28,27.28,0,0,0-14.15-17.84,28.69,28.69,0,0,0-18.69-2.32,32,32,0,0,0-15.06,7.3c1.91-1.12,16.08-9.33,28.77-3.7,2.17,1,6.54,2.47,10,7.72a40,40,0,0,1,3.37,10s-7.24.08-7.87-.16a20.24,20.24,0,0,0-7.4-12c-5.94-4.51-12.53-3.92-14.94-3.7C269.44,34.4,265.31,39.4,263,39.31Z"/><text class="cls-3" transform="translate(20.61 88.08)">MILAGRO</text><text class="cls-4" transform="translate(20.61 124.73)">INTEGR<tspan class="cls-5" x="110.47" y="0">A</tspan><tspan x="128.61" y="0">TED SE</tspan><tspan class="cls-6" x="227.43" y="0">R</tspan><tspan x="246.67" y="0">VICE</tspan></text></g></g></g></svg>